<?xml version="1.0" encoding="UTF-8" standalone="no"?>
<svg
   xmlns:dc="http://purl.org/dc/elements/1.1/"
   xmlns:cc="http://creativecommons.org/ns#"
   xmlns:rdf="http://www.w3.org/1999/02/22-rdf-syntax-ns#"
   xmlns:svg="http://www.w3.org/2000/svg"
   xmlns="http://www.w3.org/2000/svg"
   xmlns:sodipodi="http://sodipodi.sourceforge.net/DTD/sodipodi-0.dtd"
   xmlns:inkscape="http://www.inkscape.org/namespaces/inkscape"
   width="210mm"
   height="297mm"
   viewBox="0 0 210 297"
   version="1.1"
   id="svg8"
   inkscape:version="1.0.1 (c497b03c, 2020-09-10)"
   sodipodi:docname="example-icon.svg">
  <defs
     id="defs2" />
  <sodipodi:namedview
     id="base"
     pagecolor="#ffffff"
     bordercolor="#666666"
     borderopacity="1.0"
     inkscape:pageopacity="0.0"
     inkscape:pageshadow="2"
     inkscape:zoom="0.35"
     inkscape:cx="400"
     inkscape:cy="560"
     inkscape:document-units="mm"
     inkscape:current-layer="layer1"
     inkscape:document-rotation="0"
     showgrid="false"
     inkscape:window-width="1252"
     inkscape:window-height="943"
     inkscape:window-x="0"
     inkscape:window-y="23"
     inkscape:window-maximized="0" />
  <metadata
     id="metadata5">
    <rdf:RDF>
      <cc:Work
         rdf:about="">
        <dc:format>image/svg+xml</dc:format>
        <dc:type
           rdf:resource="http://purl.org/dc/dcmitype/StillImage" />
        <dc:title></dc:title>
      </cc:Work>
    </rdf:RDF>
  </metadata>
  <g
     inkscape:label="Layer 1"
     inkscape:groupmode="layer"
     id="layer1">
    <rect
       style="fill:#0000ff;fill-rule:evenodd;stroke-width:0.264583"
       id="rect10"
       width="133.80357"
       height="80.886909"
       x="40.065475"
       y="69.547623" />
    <ellipse
       style="fill:#ff0000;fill-rule:evenodd;stroke-width:0.264583"
       id="path12"
       cx="69.925591"
       cy="99.407738"
       rx="13.229166"
       ry="8.6934528" />
    <ellipse
       style="fill:#ff0000;fill-rule:evenodd;stroke-width:0.264583"
       id="path14"
       cx="131.15775"
       cy="102.80952"
       rx="14.741072"
       ry="9.8273811" />
    <path
       style="fill:none;stroke:#000000;stroke-width:0.264583px;stroke-linecap:butt;stroke-linejoin:miter;stroke-opacity:1"
       d="m 62.744048,133.04762 c 7.417151,-14.65362 16.971038,4.8758 21.922618,9.82738 0.922398,0.9224 1.991415,2.70413 3.77976,1.5119 1.39318,-0.92878 5.018614,-7.92865 5.291667,-8.31547 3.706138,-5.25036 15.823367,-18.46589 24.190477,-15.11905 5.11819,2.04728 6.78148,17.90314 15.875,12.85119 1.7759,-0.98661 3.74919,-1.70169 5.29167,-3.02381 3.16659,-2.71422 5.14888,-6.35721 8.31547,-9.07143 0.85562,-0.73338 2.22697,-2.30875 3.02381,-1.5119 0.58832,0.58832 -0.32865,12.30889 6.80357,15.875"
       id="path16" />
  </g>
</svg>
